<svg width="192" height="192" viewBox="0 0 192 192" fill="none" xmlns="http://www.w3.org/2000/svg">
	<!-- <rect width="192" height="192" fill="#1A1A1A" /> -->
	<path
		d="M137.657 38.2099C154.606 43.4715 162.777 53.4627 163.643 70.1064C163.968 75.0659 163.562 80.6762 162.586 86.9365L156.65 125.067C151.61 156.857 136.894 167.589 105.104 162.63L66.9736 156.613C55.9977 154.906 47.5413 151.979 41.3622 147.589C30.9539 140.339 27.0747 128.969 28.5468 112.081C31.682 120.44 36.4606 126.767 42.8857 131.062C50.8805 136.407 60.7413 137.618 72.4677 134.694C82.8307 132.111 91.4009 126.401 98.1777 117.566L90.3896 111.135L111.404 105.895L99.0624 56.3994C101.498 49.1298 104.898 44.9502 109.262 43.8623C111.534 43.2957 113.397 43.6039 114.851 44.7861C116.372 45.855 117.587 48.2078 118.493 51.8437L130.767 101.068L152.31 95.6963L139.119 42.791C138.71 41.1519 138.222 39.6253 137.657 38.2099ZM89.6796 110.549L86.3232 107.777C83.6855 110.752 81.1387 113.126 78.6835 114.896C76.2058 116.576 73.5123 117.779 70.6035 118.504C65.7857 119.705 61.7071 119.418 58.3681 117.644C55.0292 115.869 52.2369 112.027 49.9912 106.118L86.3173 97.0605L89.6796 110.549ZM54.7841 72.4814C62.4198 70.5777 67.7112 75.1478 70.6581 86.1924L70.8964 87.1474L46.7617 93.165C45.6524 86.7796 45.7573 81.9737 47.0771 78.748C48.4879 75.4996 51.0571 73.4107 54.7841 72.4814ZM35.5595 66.1308C40.7209 34.9654 55.454 24.4567 86.9736 29.374L102.133 31.7656C99.0611 34.4625 96.4386 38.0033 94.2656 42.3877L90.624 34.1709L71.8076 38.8633L77.5585 61.9316C70.0387 56.9166 61.076 55.705 50.6689 58.2998C44.5762 59.8189 39.5397 62.4293 35.5595 66.1308Z"
		fill="black" />
</svg>
