<svg width="64" height="64" viewBox="0 0 64 64" fill="none" xmlns="http://www.w3.org/2000/svg">
	<rect width="64" height="64" rx="15" fill="#1A1A1A" />
	<path
		d="M53.9034 23.6178C54.0087 25.2237 53.8771 27.0401 53.5612 29.0672L51.6394 41.4138C50.0073 51.7071 45.2424 55.182 34.9491 53.5762L22.6024 51.6281C19.0485 51.0753 16.3107 50.1275 14.3099 48.706C10.4927 46.0471 9.38707 41.6771 10.4401 34.9378L12.3882 22.5911C14.0203 12.2979 18.7853 8.8229 29.0785 10.4288L41.4252 12.3768C49.6914 13.6668 53.5612 17.0364 53.9034 23.6178Z"
		fill="white" />
	<path
		d="M30.9552 30.026C31.1834 30.9416 31.339 31.7427 31.4218 32.4293L17.73 35.8431C18.4154 37.6466 19.2676 38.8191 20.2867 39.3607C21.3058 39.9023 22.5506 39.9898 24.0211 39.6231C24.9089 39.4018 25.7309 39.0347 26.4871 38.522C27.2365 37.9816 28.0136 37.2574 28.8187 36.3494L32.4368 39.3372C30.3685 42.0336 27.7529 43.7761 24.5901 44.5647C21.0111 45.457 18.0015 45.0876 15.5614 43.4563C13.1213 41.825 11.4586 39.2338 10.5732 35.6825C10.0129 33.4352 9.91363 31.3234 10.2755 29.3472C10.6305 27.3432 11.4568 25.6343 12.7545 24.2204C14.0453 22.7787 15.7728 21.7881 17.9368 21.2485C21.1274 20.453 23.8734 20.8293 26.1749 22.3772C28.4763 23.9252 30.0697 26.4748 30.9552 30.026ZM24.0377 29.7616C23.1383 26.3906 21.5233 24.9957 19.1928 25.5768C18.0553 25.8604 17.2712 26.4979 16.8406 27.4893C16.4378 28.4738 16.4056 29.9406 16.7442 31.8895L24.1103 30.0529L24.0377 29.7616Z"
		fill="#1A1A1A" />
	<path
		d="M37.1547 11.3817C39.0691 10.9044 40.7125 11.1135 42.0851 12.009C43.4577 12.9045 44.4068 14.4065 44.9325 16.5151L48.9585 32.6622L42.3831 34.3017L38.6373 19.2781C38.3606 18.1684 37.99 17.4504 37.5256 17.1241C37.082 16.7632 36.5134 16.6693 35.8198 16.8422C34.488 17.1742 33.4504 18.4496 32.707 20.6683L36.4735 35.7751L29.8981 37.4145L24.3884 15.3162L30.1315 13.8843L31.243 16.392C31.9096 15.047 32.7147 13.9622 33.6584 13.1375C34.6298 12.306 35.7953 11.7207 37.1547 11.3817Z"
		fill="#1A1A1A" />
</svg>
